# xmcd CD database file
#
# Track frame offsets:
#	150
#	8698
#	17718
#	26572
#	35501
#	47243
#	56797
#	65833
#	74545
#	82032
#	93211
#	104061
#	115168
#	124536
#	135045
#	144324
#	154521
#	164259
#	174553
#	183747
#	192720
#	201457
#	209361
#	218668
#	239953
#	250688
#	262740
#	270440
#	283207
#	292040
#	302324
#	311285
#	322118
#	333221
#
# Disc length: 4581 seconds
#
# Revision: 1
# Processed by: cddbd v1.5.2PL0 Copyright (c) Steve Scherf et al.
# Submitted via: CDex 1.97
#
DISCID=fb11e322
DTITLE=Fats Domino - All Hits!
DYEAR=2017
DGENRE=Blues
TTITLE0=Valley Of Tears
TTITLE1=The Big Beat
TTITLE2=I Want You To Know
TTITLE3=Yes, My Darling
TTITLE4=Sick And Tired
TTITLE5=No, No
TTITLE6=Little Mary
TTITLE7=Young School Girl
TTITLE8=Whole Lotta Lovin'
TTITLE9=Coquette
TTITLE10=Telling Lies
TTITLE11=When The Saints Go Marching In
TTITLE12=I'm Ready
TTITLE13=I Want To Walk You Home
TTITLE14=I'm Gonne Be A Wheel Someday
TTITLE15=Be My Guest
TTITLE16=I've Been Around
TTITLE17=Country Boy
TTITLE18=Tell Me That You Love Me
TTITLE19=Walking To New Orleans
TTITLE20=Don't Come Knockin'
TTITLE21=Three Nights A Week
TTITLE22=My Girl Josephine
TTITLE23=Natural Born Lover
TTITLE24=What A Price
TTITLE25=Ain't That Just Like A Woman
TTITLE26=Shu Rah
TTITLE27=It Keeps Rainin'
TTITLE28=Fell In Love On Monday
TTITLE29=Let The Four Winds Blow
TTITLE30=What A Party
TTITLE31=Jambalaya (On The Bayou)
TTITLE32=You Win Again
TTITLE33=My Real Name
EXTD=YEAR: 2017
EXTT0=
EXTT1=
EXTT2=
EXTT3=
EXTT4=
EXTT5=
EXTT6=
EXTT7=
EXTT8=
EXTT9=
EXTT10=
EXTT11=
EXTT12=
EXTT13=
EXTT14=
EXTT15=
EXTT16=
EXTT17=
EXTT18=
EXTT19=
EXTT20=
EXTT21=
EXTT22=
EXTT23=
EXTT24=
EXTT25=
EXTT26=
EXTT27=
EXTT28=
EXTT29=
EXTT30=
EXTT31=
EXTT32=
EXTT33=
PLAYORDER=
